<?xml version="1.0" standalone="no"?>
<!DOCTYPE svg PUBLIC "-//W3C//DTD SVG 20010904//EN"
 "http://www.w3.org/TR/2001/REC-SVG-20010904/DTD/svg10.dtd">
<svg version="1.0" xmlns="http://www.w3.org/2000/svg"
 width="250.000000pt" height="250.000000pt" viewBox="0 0 250.000000 250.000000"
 preserveAspectRatio="xMidYMid meet">
<metadata>
Created by potrace 1.14, written by Peter Selinger 2001-2017
</metadata>
<g transform="translate(0.000000,250.000000) scale(0.100000,-0.100000)"
fill="#000000" stroke="none">
<path d="M1216 2419 c-8 -19 -20 -53 -26 -76 -14 -46 -16 -47 -121 -59 l-55
-6 -38 62 c-36 58 -40 62 -68 56 -16 -3 -50 -15 -74 -26 l-45 -19 7 -74 6 -74
-66 -36 c-37 -21 -71 -37 -77 -37 -5 0 -34 19 -64 41 l-55 41 -32 -25 c-48
-37 -78 -66 -78 -77 0 -5 11 -35 25 -66 14 -31 25 -61 25 -67 0 -5 -15 -26
-33 -46 -18 -20 -39 -46 -48 -58 l-15 -21 -69 19 c-43 12 -72 15 -79 9 -6 -5
-24 -34 -41 -64 l-29 -56 53 -54 52 -53 -23 -76 c-25 -82 -31 -87 -118 -87
-21 0 -43 -6 -49 -14 -6 -7 -12 -43 -14 -80 l-2 -66 60 -27 c33 -15 61 -27 62
-27 1 -1 4 -38 8 -83 l7 -82 -66 -33 c-46 -22 -65 -37 -62 -48 3 -8 10 -40 17
-71 11 -54 13 -57 48 -63 20 -3 54 -6 76 -6 40 0 40 0 72 -72 l33 -71 -38 -45
c-20 -24 -41 -50 -46 -57 -7 -9 1 -29 23 -63 47 -74 48 -74 124 -50 l68 22 56
-57 57 -57 -18 -47 c-34 -88 -34 -87 33 -132 l60 -41 55 45 c31 25 60 45 64
45 5 0 39 -13 75 -30 l66 -30 3 -72 3 -73 69 -17 c38 -10 72 -15 77 -12 4 2
23 32 41 65 l33 61 50 -6 c28 -3 64 -6 81 -6 29 0 33 -4 54 -60 12 -33 27 -63
32 -66 11 -7 120 5 137 15 7 4 17 39 22 77 l11 70 76 26 75 26 49 -54 50 -54
59 31 c33 16 62 36 66 44 3 8 -1 44 -9 79 l-15 64 59 52 59 52 67 -31 67 -30
48 51 c26 29 47 57 47 63 0 7 -18 37 -40 68 l-39 57 37 70 37 71 76 -6 76 -7
16 39 c8 22 18 55 22 74 6 33 4 35 -55 74 l-61 40 6 45 c16 126 9 115 88 141
l72 24 -4 70 c-1 39 -5 72 -7 74 -2 2 -36 11 -76 21 l-72 17 -11 54 c-7 30
-15 65 -18 79 -6 22 1 31 53 69 67 50 66 48 23 135 l-24 48 -47 -6 c-26 -4
-60 -9 -77 -12 -28 -4 -33 0 -70 57 -22 34 -41 65 -43 69 -2 4 13 34 33 66 19
33 35 62 35 66 0 11 -91 98 -103 98 -6 0 -39 -14 -73 -32 l-62 -32 -66 44
c-56 36 -66 47 -62 65 3 11 8 46 12 76 l6 55 -60 27 c-33 15 -63 27 -68 27 -5
0 -30 -26 -57 -58 l-47 -58 -80 19 -79 20 -12 69 c-7 38 -15 70 -18 72 -3 2
-36 7 -74 11 l-67 7 -14 -33z m130 -316 c-3 -27 -8 -87 -11 -135 l-7 -88 -30
0 -30 0 7 108 c9 156 11 162 47 162 30 0 30 0 24 -47z m204 1 c97 -30 104 -34
96 -62 -7 -20 -9 -20 -47 -6 -38 13 -41 12 -46 -4 -2 -9 -17 -55 -32 -102 -25
-77 -30 -85 -51 -82 -13 1 -26 5 -29 7 -4 4 36 149 54 196 4 12 -5 19 -35 28
-31 9 -40 16 -36 27 3 9 6 20 6 25 0 6 8 8 18 5 9 -3 55 -17 102 -32z m-390 8
c13 -10 23 -33 27 -59 5 -35 2 -45 -19 -66 -14 -14 -43 -28 -66 -32 -45 -7
-46 -10 -33 -67 8 -34 7 -37 -17 -43 -14 -3 -28 -2 -32 2 -11 12 -62 245 -55
252 10 9 96 28 136 30 22 1 46 -6 59 -17z m-313 -198 c62 -36 115 -69 118 -74
3 -4 -2 -14 -11 -21 -12 -10 -22 -10 -50 0 -33 12 -37 11 -82 -22 -43 -31 -47
-37 -44 -70 2 -27 -2 -38 -17 -46 -11 -6 -22 -8 -24 -4 -3 5 -17 68 -33 142
-27 130 -27 134 -9 147 10 8 23 14 29 14 5 0 60 -30 123 -66z m993 28 l23 -19
-33 -134 c-18 -74 -35 -138 -37 -142 -3 -5 -14 0 -25 10 -15 13 -18 25 -13 49
5 30 2 36 -47 73 -50 38 -53 39 -80 25 -23 -12 -31 -12 -48 -2 -11 7 -20 16
-20 20 0 7 238 137 251 138 4 0 17 -8 29 -18z m-1290 -217 c0 -17 -7 -28 -23
-34 -57 -22 -69 -88 -23 -128 35 -30 71 -29 103 3 21 21 25 32 20 63 -4 30 -1
40 16 51 18 11 23 10 35 -6 21 -29 10 -109 -19 -140 -51 -55 -104 -67 -166
-37 -48 22 -73 66 -73 127 0 43 4 53 39 87 47 48 91 54 91 14z m1508 -10 c11
-24 8 -26 -78 -77 -49 -29 -90 -56 -90 -60 0 -4 14 -30 31 -58 25 -41 29 -53
19 -65 -23 -28 -29 -21 -104 106 l-27 47 113 66 c62 36 116 66 119 66 3 0 11
-11 17 -25z m-608 -37 c171 -83 270 -240 270 -428 0 -188 -99 -344 -270 -428
-74 -37 -76 -37 -200 -37 -124 0 -126 0 -200 37 -100 48 -179 127 -228 227
-37 74 -37 76 -37 201 0 125 0 126 37 201 59 120 157 206 283 252 39 14 73 17
160 14 103 -3 115 -6 185 -39z m-879 -394 l40 -7 -29 -31 c-25 -27 -28 -36
-22 -68 4 -21 5 -38 3 -38 -2 0 -18 7 -35 16 -29 15 -34 15 -65 0 -45 -22 -46
-21 -38 22 5 32 2 41 -19 62 -15 13 -26 27 -26 30 0 4 17 10 38 14 32 5 41 12
56 43 l18 38 19 -37 c16 -32 26 -39 60 -44z m1469 37 c9 -23 20 -31 51 -36 46
-8 48 -14 13 -44 -22 -19 -25 -27 -19 -62 8 -44 6 -45 -37 -23 -29 15 -34 15
-65 0 -18 -9 -35 -16 -36 -16 -1 0 -1 18 1 41 4 33 0 45 -22 68 l-27 28 41 7
c33 5 43 12 57 41 18 39 25 38 43 -4z m-1346 -345 c31 -82 32 -92 7 -99 -16
-4 -23 6 -41 54 -24 63 -27 66 -53 46 -17 -12 -17 -15 0 -59 18 -51 18 -54
-11 -60 -14 -2 -22 7 -33 37 -19 56 -26 60 -73 41 -44 -17 -48 -15 -52 29 -1
12 214 94 224 86 3 -3 18 -37 32 -75z m1228 4 c29 -42 59 -73 86 -88 46 -26
48 -30 30 -55 -12 -15 -16 -15 -56 3 -39 18 -54 19 -125 11 -45 -5 -83 -8 -85
-6 -1 1 2 14 9 27 9 20 22 27 65 34 l54 9 -29 44 c-25 37 -28 47 -18 68 6 13
14 22 18 21 4 -2 27 -32 51 -68z m-1124 -182 c19 -19 15 -37 -42 -155 -52
-110 -54 -112 -71 -93 -15 17 -16 24 -6 46 10 24 8 30 -25 71 -33 40 -40 45
-70 40 -24 -4 -37 0 -49 13 -16 18 -14 19 57 40 40 12 91 27 113 35 51 17 78
18 93 3z m1016 -25 c21 -21 27 -35 24 -62 -3 -35 -2 -36 45 -44 52 -10 56 -16
28 -41 -16 -14 -25 -15 -70 -5 -65 14 -81 2 -46 -31 29 -27 31 -42 9 -61 -15
-12 -27 -4 -101 76 l-83 89 32 34 c41 43 87 72 114 72 12 0 33 -12 48 -27z
m-792 -152 c36 -41 38 -81 3 -81 -15 0 -25 6 -25 14 0 18 -47 56 -70 56 -10 0
-29 -9 -44 -21 -54 -42 -19 -125 50 -117 24 3 39 -1 51 -14 21 -23 9 -37 -39
-44 -45 -8 -98 17 -121 55 -19 33 -22 102 -6 132 35 66 150 78 201 20z m548 4
c38 -19 60 -63 60 -115 0 -72 -51 -120 -127 -120 -73 1 -123 53 -123 129 0 37
6 49 39 82 32 33 45 39 80 39 23 0 55 -7 71 -15z m-311 -41 c56 -6 62 -9 59
-28 -3 -18 -9 -20 -40 -18 l-36 3 -7 -100 c-8 -101 -8 -101 -34 -101 l-27 0 4
100 4 100 -36 0 c-32 0 -36 3 -36 25 0 23 4 25 44 25 23 0 71 -3 105 -6z"/>
<path d="M1220 1371 c-26 -64 -38 -71 -121 -71 -22 0 -39 -3 -39 -7 0 -5 22
-27 49 -50 l49 -43 -14 -61 c-8 -34 -12 -64 -10 -67 3 -2 30 10 60 28 l56 31
56 -31 c30 -18 57 -30 60 -28 2 3 -2 33 -10 67 l-14 61 49 43 c27 23 49 45 49
50 0 4 -17 7 -39 7 -83 0 -95 7 -121 71 -12 32 -26 59 -30 59 -4 0 -18 -27
-30 -59z"/>
<path d="M1473 578 c-68 -33 -40 -138 37 -138 29 0 70 44 70 75 0 30 -41 75
-67 74 -10 0 -28 -5 -40 -11z"/>
</g>
</svg>
