<?xml version="1.0" standalone="no"?>
<!DOCTYPE svg PUBLIC "-//W3C//DTD SVG 20010904//EN"
 "http://www.w3.org/TR/2001/REC-SVG-20010904/DTD/svg10.dtd">
<svg version="1.0" xmlns="http://www.w3.org/2000/svg"
 width="1790.000000pt" height="454.000000pt" viewBox="0 0 1790.000000 454.000000"
 preserveAspectRatio="xMidYMid meet">
<metadata>
Created by potrace 1.14, written by Peter Selinger 2001-2017
</metadata>
<g transform="translate(0.000000,454.000000) scale(0.100000,-0.100000)"
fill="#000000" stroke="none">
<path d="M1275 4090 c-308 -33 -557 -150 -761 -355 -217 -219 -323 -466 -341
-790 -11 -215 30 -424 122 -610 65 -132 125 -214 237 -321 219 -210 471 -314
803 -331 272 -13 528 61 745 215 75 54 210 179 210 196 0 6 -56 67 -124 135
l-123 123 -85 -69 c-197 -157 -345 -213 -564 -213 -223 0 -412 78 -567 233
-78 78 -118 135 -167 240 -51 109 -70 207 -70 359 0 148 23 254 76 360 155
309 475 473 850 437 201 -19 357 -91 521 -242 l41 -38 126 138 126 138 -53 53
c-121 124 -314 243 -469 291 -157 48 -373 68 -533 51z"/>
<path d="M4114 3366 c-150 -34 -267 -100 -368 -207 -121 -128 -176 -274 -176
-464 0 -201 56 -341 190 -476 135 -136 275 -197 476 -206 135 -7 230 11 335
64 80 40 181 129 232 206 l35 52 -111 57 c-122 62 -143 67 -152 39 -8 -26 -94
-105 -141 -129 -62 -32 -146 -44 -223 -32 -132 21 -234 93 -294 208 -118 224
-36 504 177 607 105 50 244 52 340 3 47 -24 133 -103 141 -129 4 -10 12 -19
18 -19 7 0 65 25 129 57 l117 56 -17 30 c-28 50 -143 168 -197 202 -27 18 -84
45 -125 60 -64 23 -94 28 -200 31 -83 2 -145 -1 -186 -10z"/>
<path d="M12552 3361 c-112 -28 -214 -83 -296 -161 -83 -79 -136 -163 -173
-275 -24 -71 -27 -96 -27 -225 -1 -134 1 -152 28 -234 91 -278 341 -456 640
-456 156 0 298 52 409 151 85 76 87 83 30 119 l-47 30 -28 -34 c-42 -51 -142
-114 -220 -137 -90 -28 -243 -23 -333 9 -259 95 -405 374 -351 672 39 214 190
382 391 435 73 19 213 19 280 1 77 -20 153 -63 211 -118 l53 -50 46 28 c25 16
45 32 45 35 0 4 -29 34 -65 67 -70 66 -174 122 -270 147 -79 20 -231 18 -323
-4z"/>
<path d="M17630 2695 l0 -665 55 0 55 0 0 665 0 665 -55 0 -55 0 0 -665z"/>
<path d="M15623 3300 c-73 -30 -44 -150 37 -150 19 0 40 9 55 25 65 64 -5 160
-92 125z"/>
<path d="M7357 3263 c-4 -3 -7 -64 -7 -135 l0 -128 -80 0 -80 0 0 -110 0 -110
79 0 80 0 3 -292 c3 -258 6 -298 22 -336 24 -56 94 -117 151 -131 96 -24 242
-6 295 37 l22 18 -26 88 c-14 49 -28 91 -30 93 -2 3 -13 0 -24 -6 -38 -20 -96
-13 -123 15 -24 25 -24 27 -27 270 l-3 244 101 0 100 0 0 110 0 110 -100 0
-100 0 0 135 0 135 -123 0 c-68 0 -127 -3 -130 -7z"/>
<path d="M16067 3263 c-4 -3 -7 -64 -7 -135 l0 -128 -80 0 -80 0 0 -45 0 -45
80 0 80 0 0 -355 c0 -217 4 -374 11 -405 12 -59 49 -107 96 -126 47 -20 140
-17 188 6 69 33 69 32 46 78 l-21 42 -33 -20 c-38 -24 -104 -26 -134 -5 -38
27 -43 74 -43 438 l0 347 100 0 100 0 0 45 0 45 -100 0 -100 0 0 135 0 135
-48 0 c-27 0 -52 -3 -55 -7z"/>
<path d="M1830 3223 c-216 -20 -392 -79 -561 -188 -72 -46 -227 -179 -236
-201 -3 -7 49 -71 118 -148 l123 -135 36 30 c207 174 324 229 530 249 283 27
525 -56 708 -242 73 -74 90 -98 137 -190 63 -122 80 -203 79 -373 -1 -180 -19
-258 -91 -398 -39 -75 -65 -109 -143 -187 -169 -169 -334 -240 -560 -240 -231
0 -391 61 -583 222 -39 32 -73 57 -77 56 -4 -2 -62 -61 -130 -131 l-124 -129
79 -74 c317 -299 729 -401 1171 -289 384 97 702 394 818 763 40 127 56 240 56
392 0 363 -106 621 -354 865 -168 165 -323 253 -550 310 -133 34 -323 50 -446
38z"/>
<path d="M5313 3005 c-228 -62 -367 -248 -367 -490 0 -294 211 -505 504 -505
304 1 514 207 514 505 0 300 -212 506 -519 504 -44 0 -104 -7 -132 -14z m231
-229 c96 -40 150 -134 150 -261 0 -169 -93 -275 -241 -275 -145 1 -237 106
-237 275 -1 123 49 214 139 256 48 22 142 25 189 5z"/>
<path d="M6628 3006 c-68 -20 -129 -51 -176 -92 l-42 -36 0 61 0 61 -130 0
-130 0 0 -485 0 -485 130 0 130 0 0 326 0 327 34 32 c51 48 102 69 181 73 84
4 129 -15 160 -68 19 -33 20 -54 23 -362 l3 -328 130 0 129 0 0 355 c0 224 -4
374 -11 407 -32 150 -122 219 -294 225 -54 1 -109 -3 -137 -11z"/>
<path d="M8443 3005 c-52 -16 -123 -56 -168 -97 l-35 -30 0 61 0 61 -130 0
-130 0 0 -485 0 -485 130 0 130 0 0 320 0 321 28 26 c50 48 129 77 209 78 l73
0 0 123 0 122 -32 -1 c-18 0 -52 -6 -75 -14z"/>
<path d="M8954 3001 c-38 -11 -87 -26 -107 -35 -53 -22 -147 -86 -147 -99 0
-7 21 -47 46 -90 l45 -77 32 24 c18 14 60 38 92 53 51 23 73 27 150 28 104 0
155 -20 193 -75 18 -28 22 -46 22 -118 l0 -84 -34 30 c-59 51 -137 75 -251 76
-135 1 -191 -18 -265 -93 -80 -80 -105 -177 -76 -290 41 -160 177 -250 360
-238 93 6 172 33 228 77 l38 31 0 -46 0 -45 130 0 130 0 0 348 c0 279 -3 358
-15 399 -30 103 -102 175 -212 215 -84 31 -263 35 -359 9z m270 -569 l51 -29
3 -68 c2 -54 -1 -71 -15 -87 -64 -71 -239 -84 -312 -22 -83 69 -54 190 54 230
60 22 155 12 219 -24z"/>
<path d="M10253 3005 c-52 -16 -123 -56 -168 -97 l-35 -30 0 61 0 61 -130 0
-130 0 0 -485 0 -485 130 0 130 0 0 320 0 321 28 26 c50 48 129 77 209 78 l73
0 0 123 0 122 -32 -1 c-18 0 -52 -6 -75 -14z"/>
<path d="M13659 3005 c-26 -7 -66 -22 -91 -35 -53 -26 -138 -96 -138 -113 0
-7 12 -25 25 -40 l25 -28 48 39 c93 79 203 111 314 92 68 -11 104 -28 146 -71
44 -45 54 -86 50 -212 l-3 -109 -45 36 c-62 50 -140 77 -236 83 -155 10 -279
-52 -342 -171 -24 -45 -27 -62 -27 -146 0 -87 3 -100 29 -148 58 -104 157
-162 289 -170 104 -6 190 17 274 74 l63 44 0 -50 0 -50 55 0 55 0 0 368 c0
438 -2 447 -85 529 -42 41 -67 56 -120 72 -77 24 -211 27 -286 6z m211 -457
c54 -16 103 -43 138 -76 l32 -30 0 -115 0 -115 -31 -27 c-134 -112 -359 -119
-455 -13 -82 90 -79 246 8 324 71 65 194 86 308 52z"/>
<path d="M14787 3001 c-67 -22 -121 -55 -171 -106 l-36 -36 0 71 0 70 -55 0
-55 0 0 -670 0 -670 55 0 55 0 0 256 0 257 48 -44 c97 -91 187 -124 311 -117
157 11 279 93 345 232 43 91 56 153 56 274 0 227 -88 390 -249 465 -84 40
-215 47 -304 18z m250 -109 c99 -51 164 -158 185 -299 28 -195 -48 -382 -185
-456 -35 -19 -58 -22 -142 -22 -90 0 -106 3 -159 29 -33 16 -81 50 -108 76
l-48 46 0 251 0 250 48 46 c89 82 157 108 277 104 69 -3 100 -8 132 -25z"/>
<path d="M16819 3005 c-26 -7 -66 -22 -91 -35 -53 -26 -138 -96 -138 -113 0
-7 12 -25 25 -40 l25 -28 48 39 c93 79 203 111 314 92 68 -11 104 -28 146 -71
44 -45 54 -86 50 -212 l-3 -109 -45 36 c-62 50 -140 77 -236 83 -155 10 -279
-52 -342 -171 -24 -45 -27 -62 -27 -146 0 -87 3 -100 29 -148 58 -104 157
-162 289 -170 104 -6 190 17 274 74 l63 44 0 -50 0 -50 55 0 55 0 0 368 c0
438 -2 447 -85 529 -42 41 -67 56 -120 72 -77 24 -211 27 -286 6z m211 -457
c54 -16 103 -43 138 -76 l32 -30 0 -115 0 -115 -31 -27 c-134 -112 -359 -119
-455 -13 -82 90 -79 246 8 324 71 65 194 86 308 52z"/>
<path d="M10383 2988 c3 -7 91 -228 196 -491 l191 -478 -21 -50 c-12 -27 -36
-61 -52 -75 -29 -24 -37 -26 -104 -22 l-73 5 -5 -31 c-24 -135 -32 -192 -28
-196 10 -10 230 -4 270 8 53 16 129 67 165 113 18 22 119 260 268 629 132 327
240 595 240 597 0 2 -62 3 -138 3 l-139 0 -123 -331 c-69 -186 -126 -326 -130
-319 -4 7 -61 155 -126 331 l-119 319 -139 0 c-106 0 -137 -3 -133 -12z"/>
<path d="M15610 2515 l0 -485 55 0 55 0 0 485 0 485 -55 0 -55 0 0 -485z"/>
</g>
</svg>
