<?xml version="1.0" standalone="no"?>
<!DOCTYPE svg PUBLIC "-//W3C//DTD SVG 20010904//EN"
 "http://www.w3.org/TR/2001/REC-SVG-20010904/DTD/svg10.dtd">
<svg version="1.0" xmlns="http://www.w3.org/2000/svg"
 width="750.000000pt" height="210.000000pt" viewBox="0 0 750.000000 210.000000"
 preserveAspectRatio="xMidYMid meet">
<metadata>
Created by potrace 1.14, written by Peter Selinger 2001-2017
</metadata>
<g transform="translate(0.000000,210.000000) scale(0.100000,-0.100000)"
fill="#000000" stroke="none">
<path d="M1540 1010 l0 -710 175 0 175 0 0 710 0 710 -175 0 -175 0 0 -710z
m99 578 c-6 -11 -8 -26 -5 -34 10 -26 34 -15 63 29 25 36 34 42 69 45 49 4 66
-12 67 -63 1 -44 -24 -75 -47 -56 -14 12 -14 15 0 28 20 21 14 47 -13 51 -16
2 -29 -7 -49 -38 -43 -65 -115 -65 -129 0 -9 40 19 88 40 70 11 -9 12 -17 4
-32z m48 -133 c18 -13 22 -13 33 0 18 21 67 18 90 -5 15 -15 20 -33 20 -70 l0
-50 -115 0 -115 0 0 48 c0 49 13 75 40 85 23 8 24 8 47 -8z m143 -195 c0 -18
-7 -20 -62 -21 l-63 -1 64 -22 c71 -24 71 -25 -9 -52 l-55 -19 63 -3 c54 -3
62 -6 62 -22 0 -19 -8 -20 -115 -20 -115 0 -115 0 -115 24 0 21 9 27 68 47
l67 22 -65 22 c-51 17 -66 26 -68 43 -3 22 -1 22 112 22 109 0 116 -1 116 -20z
m-37 -212 c9 -5 24 -20 33 -33 13 -20 14 -28 2 -52 -7 -15 -24 -33 -38 -40
-32 -16 -118 -16 -150 0 -68 34 -59 111 15 134 41 12 106 8 138 -9z m-133
-187 c0 -10 -7 -21 -15 -25 -8 -3 -15 -12 -15 -20 0 -39 111 -50 151 -16 l24
20 -22 17 c-27 21 -17 49 14 39 31 -10 46 -52 31 -84 -19 -40 -54 -53 -127
-49 -55 3 -67 7 -87 31 -28 32 -30 53 -8 84 19 27 54 30 54 3z m170 -311 c0
-18 -7 -20 -67 -20 l-68 -1 55 -19 c30 -11 62 -23 70 -26 9 -4 -9 -15 -50 -29
l-65 -23 63 -1 c55 -1 62 -3 62 -21 0 -19 -7 -20 -115 -20 -114 0 -115 0 -115
23 0 20 9 27 60 42 33 10 60 21 60 25 0 4 -27 15 -60 25 -51 15 -60 22 -60 42
0 23 1 23 115 23 108 0 115 -1 115 -20z"/>
<path d="M4253 1710 c-27 -11 -43 -40 -43 -79 0 -64 97 -95 145 -46 31 30 34
84 6 109 -23 21 -78 29 -108 16z"/>
<path d="M4930 1679 l29 -41 -25 -33 c-14 -19 -31 -36 -37 -39 -7 -2 0 -5 16
-5 15 -1 27 4 27 12 0 6 7 20 15 30 13 18 14 17 30 -12 14 -28 20 -31 60 -31
25 0 44 3 44 8 -5 31 3 42 31 42 23 0 31 -5 36 -25 5 -19 13 -25 33 -25 15 0
21 3 15 8 -7 4 -24 36 -39 72 -15 36 -30 69 -34 73 -5 4 -23 -26 -41 -68 -18
-41 -38 -75 -44 -75 -10 0 -56 62 -56 76 0 4 11 22 26 41 22 29 23 33 7 33
-12 0 -24 -12 -32 -32 l-12 -33 -17 33 c-11 22 -23 32 -39 32 l-23 0 30 -41z"/>
<path d="M2040 1275 l0 -145 30 0 30 0 0 60 0 60 60 0 60 0 0 -60 0 -60 30 0
30 0 0 145 0 145 -30 0 c-30 0 -30 -1 -30 -55 l0 -55 -60 0 -60 0 0 55 c0 54
0 55 -30 55 l-30 0 0 -145z"/>
<path d="M2350 1275 l0 -145 105 0 105 0 0 30 0 30 -75 0 -75 0 0 35 c0 34 1
35 40 35 38 0 40 2 40 30 0 28 -2 30 -40 30 -33 0 -40 3 -40 20 0 18 7 20 70
20 l70 0 0 30 0 30 -100 0 -100 0 0 -145z"/>
<path d="M2620 1275 l0 -145 30 0 c30 0 30 1 30 55 0 54 1 55 28 55 24 0 32
-8 55 -55 24 -49 30 -55 57 -55 16 0 30 2 30 5 0 3 -11 28 -26 56 l-25 50 24
19 c47 37 39 118 -14 145 -18 10 -57 15 -109 15 l-80 0 0 -145z"/>
<path d="M2920 1275 l0 -145 75 0 c94 0 142 18 151 57 11 39 7 64 -10 81 -13
13 -13 18 0 45 13 23 13 35 4 57 -16 38 -48 50 -140 50 l-80 0 0 -145z"/>
<path d="M3330 1275 l0 -145 30 0 c29 0 30 1 30 48 0 37 5 53 23 70 l22 21 40
-69 c36 -65 41 -70 72 -70 18 0 33 2 33 4 0 3 -22 43 -50 91 -27 48 -50 89
-50 93 0 3 18 27 41 54 l40 48 -35 0 c-30 0 -41 -8 -85 -61 l-51 -61 0 61 0
61 -30 0 -30 0 0 -145z"/>
<path d="M3630 1275 l0 -145 105 0 105 0 0 30 0 30 -75 0 -75 0 0 35 c0 34 1
35 40 35 38 0 40 2 40 30 0 28 -2 30 -40 30 -33 0 -40 3 -40 20 0 18 7 20 70
20 l70 0 0 30 0 30 -100 0 -100 0 0 -145z"/>
<path d="M3900 1275 l0 -145 100 0 100 0 0 30 0 30 -70 0 -70 0 0 115 0 115
-30 0 -30 0 0 -145z"/>
<path d="M4160 1275 l0 -145 100 0 100 0 0 30 0 30 -70 0 -70 0 0 115 0 115
-30 0 -30 0 0 -145z"/>
<path d="M4420 1275 l0 -145 105 0 105 0 0 30 0 30 -75 0 -75 0 0 35 c0 34 1
35 40 35 38 0 40 2 40 30 0 28 -2 30 -40 30 -33 0 -40 3 -40 20 0 18 7 20 70
20 l70 0 0 30 0 30 -100 0 -100 0 0 -145z"/>
<path d="M4690 1275 l0 -145 30 0 30 0 0 60 0 60 60 0 60 0 0 -60 0 -60 30 0
30 0 0 145 0 145 -30 0 c-30 0 -30 -1 -30 -55 l0 -55 -60 0 -60 0 0 55 c0 54
0 55 -30 55 l-30 0 0 -145z"/>
<path d="M5000 1275 l0 -145 105 0 105 0 0 30 0 30 -75 0 -75 0 0 35 c0 34 1
35 40 35 38 0 40 2 40 30 0 28 -2 30 -40 30 -33 0 -40 3 -40 20 0 18 7 20 70
20 l70 0 0 30 0 30 -100 0 -100 0 0 -145z"/>
<path d="M5270 1275 l0 -145 30 0 c30 0 30 1 30 55 0 54 1 55 28 55 24 0 32
-8 55 -55 24 -49 30 -55 57 -55 16 0 30 2 30 5 0 3 -11 28 -26 56 l-25 50 24
19 c47 37 39 118 -14 145 -18 10 -57 15 -109 15 l-80 0 0 -145z"/>
<path d="M5742 1403 c-99 -49 -89 -227 16 -263 37 -13 47 -13 83 0 23 8 48 25
57 37 13 21 12 23 -12 34 -21 10 -29 9 -44 -4 -24 -22 -54 -21 -83 2 -31 25
-34 98 -5 130 22 25 62 27 86 6 14 -13 22 -14 43 -4 22 10 24 15 16 31 -12 22
-67 48 -101 48 -13 0 -38 -8 -56 -17z"/>
<path d="M5970 1275 l0 -145 105 0 105 0 0 30 0 30 -75 0 -75 0 0 35 c0 34 1
35 40 35 38 0 40 2 40 30 0 28 -2 30 -40 30 -33 0 -40 3 -40 20 0 18 7 20 70
20 l70 0 0 30 0 30 -100 0 -100 0 0 -145z"/>
<path d="M6240 1275 l0 -145 25 0 c25 0 25 1 25 91 0 51 4 88 9 85 5 -4 35
-44 67 -91 49 -73 62 -85 86 -85 l28 0 0 145 0 145 -30 0 -29 0 -3 -89 -3 -90
-60 89 c-51 76 -64 89 -87 90 l-28 0 0 -145z"/>
<path d="M6530 1390 c0 -28 2 -30 40 -30 l40 0 0 -115 0 -115 30 0 30 0 0 115
0 115 45 0 c43 0 45 1 45 30 l0 30 -115 0 -115 0 0 -30z"/>
<path d="M6820 1275 l0 -145 105 0 105 0 0 30 0 30 -75 0 -75 0 0 35 c0 34 1
35 40 35 38 0 40 2 40 30 0 28 -2 30 -40 30 -33 0 -40 3 -40 20 0 18 7 20 70
20 l70 0 0 30 0 30 -100 0 -100 0 0 -145z"/>
<path d="M7090 1275 l0 -145 30 0 c30 0 30 1 30 55 0 54 1 55 28 55 24 0 32
-8 55 -55 24 -49 30 -55 57 -55 16 0 30 2 30 5 0 3 -11 28 -26 56 l-25 50 24
19 c47 37 39 118 -14 145 -18 10 -57 15 -109 15 l-80 0 0 -145z"/>
<path d="M1320 1074 c-102 -36 -189 -69 -194 -74 -4 -4 -5 -164 -1 -354 l8
-346 198 0 199 0 0 420 c0 330 -3 420 -12 419 -7 0 -96 -30 -198 -65z"/>
<path d="M2040 855 l0 -145 30 0 30 0 0 60 0 60 40 0 c38 0 40 2 40 30 0 28
-2 30 -40 30 -36 0 -40 3 -40 25 0 24 2 25 75 25 l75 0 0 30 0 30 -105 0 -105
0 0 -145z"/>
<path d="M2332 985 c-23 -10 -39 -28 -54 -61 -54 -124 37 -245 155 -203 52 18
79 55 84 116 6 59 -15 114 -51 138 -35 23 -95 28 -134 10z m107 -71 c28 -36
27 -91 -1 -121 -67 -72 -159 42 -97 121 28 35 70 35 98 0z"/>
<path d="M2580 855 l0 -145 30 0 c30 0 30 1 30 55 0 54 1 55 28 55 24 0 32 -8
55 -55 24 -49 30 -55 57 -55 16 0 30 2 30 5 0 3 -11 28 -26 56 l-25 50 24 19
c47 37 39 118 -14 145 -18 10 -57 15 -109 15 l-80 0 0 -145z"/>
<path d="M3000 855 l0 -145 105 0 105 0 0 30 0 30 -75 0 -75 0 0 35 c0 34 1
35 40 35 38 0 40 2 40 30 0 28 -2 30 -40 30 -33 0 -40 3 -40 20 0 18 7 20 70
20 l70 0 0 30 0 30 -100 0 -100 0 0 -145z"/>
<path d="M3270 855 l0 -145 25 0 c25 0 25 1 25 91 0 51 4 88 9 85 5 -4 35 -44
67 -91 49 -73 62 -85 86 -85 l28 0 0 145 0 145 -30 0 -29 0 -3 -89 -3 -90 -60
89 c-51 76 -64 89 -87 90 l-28 0 0 -145z"/>
<path d="M3560 970 c0 -28 2 -30 40 -30 l40 0 0 -115 0 -115 30 0 30 0 0 115
0 115 45 0 c43 0 45 1 45 30 l0 30 -115 0 -115 0 0 -30z"/>
<path d="M3850 855 l0 -145 30 0 c30 0 30 1 30 55 0 54 1 55 28 55 24 0 32 -8
55 -55 24 -49 30 -55 57 -55 16 0 30 2 30 5 0 3 -11 28 -26 56 l-25 50 24 19
c47 37 39 118 -14 145 -18 10 -57 15 -109 15 l-80 0 0 -145z"/>
<path d="M4140 855 l0 -145 105 0 105 0 0 30 0 30 -75 0 -75 0 0 35 c0 34 1
35 40 35 38 0 40 2 40 30 0 28 -2 30 -40 30 -33 0 -40 3 -40 20 0 18 7 20 70
20 l70 0 0 30 0 30 -100 0 -100 0 0 -145z"/>
<path d="M4420 856 l0 -146 30 0 c29 0 30 1 30 50 l0 50 34 0 c95 0 142 39
132 109 -9 61 -34 76 -136 79 l-90 4 0 -146z"/>
<path d="M4700 855 l0 -145 30 0 c30 0 30 1 30 55 0 54 1 55 28 55 24 0 32 -8
55 -55 24 -49 30 -55 57 -55 16 0 30 2 30 5 0 3 -11 28 -26 56 l-25 50 24 19
c47 37 39 118 -14 145 -18 10 -57 15 -109 15 l-80 0 0 -145z"/>
<path d="M5000 855 l0 -145 105 0 105 0 0 30 0 30 -75 0 -75 0 0 35 c0 34 1
35 40 35 38 0 40 2 40 30 0 28 -2 30 -40 30 -33 0 -40 3 -40 20 0 18 7 20 70
20 l70 0 0 30 0 30 -100 0 -100 0 0 -145z"/>
<path d="M5270 855 l0 -145 25 0 c25 0 25 1 25 91 0 51 4 88 9 85 5 -4 35 -44
67 -91 49 -73 62 -85 86 -85 l28 0 0 145 0 145 -30 0 -29 0 -3 -89 -3 -90 -60
89 c-51 76 -64 89 -87 90 l-28 0 0 -145z"/>
<path d="M5580 855 l0 -145 105 0 105 0 0 30 0 30 -75 0 -75 0 0 35 c0 34 1
35 40 35 38 0 40 2 40 30 0 28 -2 30 -40 30 -33 0 -40 3 -40 20 0 18 7 20 70
20 l70 0 0 30 0 30 -100 0 -100 0 0 -145z"/>
<path d="M5850 890 c0 -107 1 -110 29 -142 27 -30 35 -33 86 -33 51 0 59 3 86
33 28 32 29 35 29 142 l0 110 -25 0 c-25 0 -25 -1 -25 -79 0 -123 -23 -162
-85 -147 -31 8 -45 52 -45 147 0 78 0 79 -25 79 l-25 0 0 -110z"/>
<path d="M6150 855 l0 -145 30 0 c30 0 30 1 30 55 0 54 1 55 28 55 24 0 32 -8
55 -55 24 -49 30 -55 57 -55 16 0 30 2 30 5 0 3 -11 28 -26 56 l-25 50 24 19
c47 37 39 118 -14 145 -18 10 -57 15 -109 15 l-80 0 0 -145z"/>
<path d="M6490 982 c-30 -15 -35 -22 -38 -58 -4 -50 12 -66 91 -88 50 -15 58
-20 55 -39 -4 -28 -54 -35 -96 -13 -28 14 -32 14 -52 -2 l-23 -18 28 -22 c51
-40 146 -41 186 -1 22 22 25 76 6 102 -7 10 -39 26 -72 35 -47 14 -60 23 -60
38 0 25 47 31 80 10 21 -14 24 -13 40 4 21 23 13 38 -31 56 -44 18 -72 18
-114 -4z"/>
<path d="M6730 855 l0 -145 30 0 30 0 0 60 0 60 60 0 60 0 0 -60 0 -60 30 0
30 0 0 145 0 145 -30 0 c-30 0 -30 -1 -30 -55 l0 -55 -60 0 -60 0 0 55 c0 54
0 55 -30 55 l-30 0 0 -145z"/>
<path d="M7040 855 l0 -145 30 0 30 0 0 145 0 145 -30 0 -30 0 0 -145z"/>
<path d="M7180 856 l0 -146 30 0 c29 0 30 1 30 50 l0 50 34 0 c95 0 142 39
132 109 -9 61 -34 76 -136 79 l-90 4 0 -146z"/>
<path d="M370 751 l-245 -87 -3 -182 -2 -182 446 0 446 0 -34 48 c-19 26 -105
147 -193 270 -87 122 -161 222 -164 221 -3 0 -116 -40 -251 -88z"/>
<path d="M2092 574 c-99 -50 -89 -228 15 -263 83 -29 163 23 163 107 l0 32
-55 0 c-52 0 -55 -1 -55 -25 0 -20 5 -25 25 -25 30 0 33 -15 6 -30 -29 -15
-56 -12 -82 9 -31 25 -34 98 -5 130 23 25 63 27 87 5 12 -11 27 -14 44 -10 31
8 31 17 2 51 -29 35 -97 43 -145 19z"/>
<path d="M2330 445 l0 -145 30 0 c30 0 30 1 30 55 0 54 1 55 28 55 24 0 32 -8
55 -55 24 -49 30 -55 57 -55 16 0 30 2 30 5 0 3 -11 28 -26 56 l-25 50 24 19
c47 37 39 118 -14 145 -18 10 -57 15 -109 15 l-80 0 0 -145z"/>
<path d="M2682 575 c-23 -10 -39 -28 -54 -61 -54 -124 37 -245 155 -203 52 18
79 55 84 116 6 59 -15 114 -51 138 -35 23 -95 28 -134 10z m107 -71 c44 -56
13 -144 -50 -144 -35 0 -69 42 -69 85 0 44 34 85 70 85 19 0 36 -9 49 -26z"/>
<path d="M2904 573 c3 -10 17 -75 32 -145 27 -126 27 -128 54 -128 27 0 29 4
50 90 12 50 24 90 25 90 2 0 8 -24 15 -52 25 -121 29 -128 59 -128 28 0 28 1
55 128 15 70 29 135 32 145 4 13 -1 17 -25 17 -33 0 -33 1 -52 -105 l-13 -70
-12 45 c-7 25 -18 64 -24 88 -9 35 -15 42 -35 42 -26 0 -25 3 -58 -130 l-13
-55 -13 79 c-17 104 -18 106 -53 106 -23 0 -28 -4 -24 -17z"/>
<path d="M3260 560 c0 -28 2 -30 40 -30 l40 0 0 -115 0 -115 30 0 30 0 0 115
0 115 45 0 c43 0 45 1 45 30 l0 30 -115 0 -115 0 0 -30z"/>
<path d="M3550 445 l0 -145 30 0 30 0 0 60 0 60 60 0 60 0 0 -60 0 -60 30 0
30 0 0 145 0 145 -30 0 c-30 0 -30 -1 -30 -55 l0 -55 -60 0 -60 0 0 55 c0 54
0 55 -30 55 l-30 0 0 -145z"/>
<path d="M4169 563 c-6 -16 -30 -79 -55 -141 -24 -63 -44 -116 -44 -118 0 -2
13 -4 29 -4 25 0 31 6 41 35 l12 36 56 -3 c54 -3 57 -4 66 -35 8 -29 13 -33
42 -33 l32 0 -40 103 c-22 56 -47 121 -55 145 -13 36 -19 42 -44 42 -23 0 -32
-6 -40 -27z"/>
<path d="M4410 445 l0 -145 25 0 c25 0 25 1 25 91 0 51 4 88 9 85 5 -4 35 -44
67 -91 49 -73 62 -85 86 -85 l28 0 0 145 0 145 -30 0 -29 0 -3 -89 -3 -90 -60
89 c-51 76 -64 89 -87 90 l-28 0 0 -145z"/>
<path d="M4720 445 l0 -148 74 5 c84 5 117 22 142 69 19 37 21 109 4 149 -19
46 -55 63 -142 68 l-78 5 0 -148z m146 70 c26 -18 37 -65 23 -103 -11 -31 -45
-52 -84 -52 -25 0 -25 1 -25 85 l0 85 33 0 c18 0 42 -7 53 -15z"/>
<path d="M5130 445 l0 -145 30 0 c30 0 30 1 30 55 0 54 1 55 28 55 24 0 32 -8
55 -55 24 -49 30 -55 57 -55 16 0 30 2 30 5 0 3 -11 28 -26 56 l-25 50 24 19
c47 37 39 118 -14 145 -18 10 -57 15 -109 15 l-80 0 0 -145z"/>
<path d="M5430 445 l0 -145 105 0 105 0 0 30 0 30 -75 0 -75 0 0 35 c0 34 1
35 40 35 38 0 40 2 40 30 0 28 -2 30 -40 30 -33 0 -40 3 -40 20 0 18 7 20 70
20 l70 0 0 30 0 30 -100 0 -100 0 0 -145z"/>
<path d="M5700 445 l0 -145 25 0 c25 0 25 1 25 91 0 51 4 88 9 85 5 -4 35 -44
67 -91 49 -73 62 -85 86 -85 l28 0 0 145 0 145 -30 0 -29 0 -3 -89 -3 -90 -60
89 c-51 76 -64 89 -87 90 l-28 0 0 -145z"/>
<path d="M6010 445 l0 -145 105 0 105 0 0 30 0 30 -75 0 -75 0 0 35 c0 34 1
35 40 35 38 0 40 2 40 30 0 28 -2 30 -40 30 -33 0 -40 3 -40 20 0 18 7 20 70
20 l70 0 0 30 0 30 -100 0 -100 0 0 -145z"/>
<path d="M6264 573 c3 -10 17 -75 32 -145 27 -126 27 -128 54 -128 27 0 29 4
50 90 12 50 24 90 25 90 2 0 8 -24 15 -52 25 -121 29 -128 59 -128 28 0 28 1
55 128 15 70 29 135 32 145 4 13 -1 17 -25 17 -33 0 -33 1 -52 -105 l-13 -70
-12 45 c-7 25 -18 64 -24 88 -9 35 -15 42 -35 42 -26 0 -25 3 -58 -130 l-13
-55 -13 79 c-17 104 -18 106 -53 106 -23 0 -28 -4 -24 -17z"/>
<path d="M6699 563 c-6 -16 -30 -79 -55 -141 -24 -63 -44 -116 -44 -118 0 -2
13 -4 29 -4 25 0 31 6 41 35 l12 36 56 -3 c54 -3 57 -4 66 -35 8 -29 13 -33
42 -33 l32 0 -40 103 c-22 56 -47 121 -55 145 -13 36 -19 42 -44 42 -23 0 -32
-6 -40 -27z"/>
<path d="M6930 445 l0 -145 100 0 100 0 0 30 0 30 -70 0 -70 0 0 115 0 115
-30 0 -30 0 0 -145z"/>
</g>
</svg>
